<?xml version="1.0" ?><svg enable-background="new 0 0 512 512" id="Layer_1" version="1.1" viewBox="0 0 512 512" xml:space="preserve" xmlns="http://www.w3.org/2000/svg" xmlns:xlink="http://www.w3.org/1999/xlink"><g><g><linearGradient gradientUnits="userSpaceOnUse" id="SVGID_1_" x1="0.0000038" x2="512" y1="256" y2="256"><stop offset="0" style="stop-color:#E24263"/><stop offset="1" style="stop-color:#DD1E47"/></linearGradient><circle cx="256" cy="256" fill="url(#SVGID_1_)" r="256"/><linearGradient gradientUnits="userSpaceOnUse" id="SVGID_2_" x1="42.6666679" x2="469.3333435" y1="256.0005188" y2="256.0005188"><stop offset="0" style="stop-color:#DD1E47"/><stop offset="1" style="stop-color:#E24263"/></linearGradient><path d="M256,469.3338623c-117.6309357,0-213.3333282-95.7018738-213.3333282-213.3333435    c0-117.6309204,95.7023926-213.333313,213.3333282-213.333313c117.636261,0,213.3333435,95.7024002,213.3333435,213.333313    C469.3333435,373.6319885,373.636261,469.3338623,256,469.3338623z" fill="url(#SVGID_2_)"/></g><g><g><circle cx="303.4890747" cy="345.3411865" opacity="0.3" r="23.0174675"/><circle cx="217.7206726" cy="345.3411865" opacity="0.3" r="23.0175991"/></g><polygon opacity="0.3" points="342.449585,199.9013367 314.8475952,172.2991943 287.2453308,199.9013367   "/><path d="M262.0725403,199.9013367c-2.3296204-13.8250732-14.3114777-24.3722687-28.799469-24.3722687    c-14.4874725,0-26.4613342,10.5487976-28.7925415,24.3722687H262.0725403z" opacity="0.3"/><polygon opacity="0.3" points="180.2463989,210.0554657 180.2463989,199.9013367 180.2949371,199.9013367     180.2949371,171.9029388 147.4229279,159.6416016 144,168.8165283 170.5034637,178.7013397 170.5034637,302.7408142     350.4650574,302.7408142 384,210.0554657   "/></g><g><g><circle cx="295.4890747" cy="337.3411865" fill="#FFFFFF" r="23.0174675"/><circle cx="209.7206726" cy="337.3411865" fill="#FFFFFF" r="23.0175991"/></g><polygon fill="#FFFFFF" points="334.449585,191.9013367 306.8475952,164.2991943 279.2453308,191.9013367   "/><path d="M254.0725403,191.9013367c-2.3296051-13.8250732-14.3114777-24.3722687-28.799469-24.3722687    c-14.4874725,0-26.4613342,10.5487976-28.7925415,24.3722687H254.0725403z" fill="#FFFFFF"/><polygon fill="#FFFFFF" points="172.2463989,202.0554657 172.2463989,191.9013367 172.2949371,191.9013367     172.2949371,163.9029388 139.4229279,151.6416016 136,160.8165283 162.5034637,170.7013397 162.5034637,294.7408142     342.4650574,294.7408142 376,202.0554657   "/></g></g></svg>